<svg width="268" height="47" viewBox="0 0 268 47" fill="none" xmlns="http://www.w3.org/2000/svg">
<path d="M89.6 0.640015L89.6 18.552L35.968 32.248L35.968 32.504L89.6 32.504L89.6 45.64L-3.24846e-05 45.64L-3.18265e-05 30.584L65.408 13.688L65.408 13.432L-3.10767e-05 13.432L-3.05176e-05 0.640011L89.6 0.640015Z" fill="#DB0000"/>
<path d="M94.6239 0.640015H113.824V7.23994H101.664V19.0799H111.328V25.4799H101.664V39.2399H113.824V45.6399H94.6239V0.640015Z" fill="#DB0000"/>
<path d="M123.378 7.23994H116.018V0.640015H137.778V7.23994H130.418V45.6399H123.378V7.23994Z" fill="#DB0000"/>
<path d="M141.186 0.640015H159.81V7.23994H148.226V19.7199H157.314V26.1199H148.226V45.6399H141.186V0.640015Z" fill="#DB0000"/>
<path d="M163.186 0.640015H170.226V39.2399H181.81V45.6399H163.186V0.640015Z" fill="#DB0000"/>
<path d="M185.186 0.640015H192.226V45.6399H185.186V0.640015Z" fill="#DB0000"/>
<path d="M207.419 46.2799C204.048 46.2799 201.467 45.3199 199.675 43.3999C197.926 41.4799 197.051 38.7706 197.051 35.2719V11.2079C197.051 7.70928 197.926 4.80002 199.675 2.88002C201.467 0.960016 204.048 1.52588e-05 207.419 1.52588e-05C210.79 1.52588e-05 213.35 0.960016 215.099 2.88002C216.891 4.80002 217.787 7.70928 217.787 11.2079V15.9439H211.131V10.7599C211.131 7.98661 209.958 6.59995 207.611 6.59995C205.264 6.59995 204.091 7.98661 204.091 10.7599V35.7839C204.091 38.5146 205.264 39.8799 207.611 39.8799C209.958 39.8799 211.131 38.5146 211.131 35.7839V28.9359H217.787V35.2719C217.787 38.7706 216.891 41.4799 215.099 43.3999C213.35 45.3199 210.79 46.2799 207.419 46.2799Z" fill="#DB0000"/>
<path d="M221.999 0.640015H229.039V19.7199L237.999 0.640015H245.039L236.655 17.2879L245.167 45.6399H237.807L231.855 25.6719L229.039 31.3679V45.6399H221.999V0.640015Z" fill="#DB0000"/>
<path d="M257.213 46.2799C253.8 46.2799 251.219 45.3199 249.469 43.3999C247.72 41.4373 246.845 38.6426 246.845 35.0159V32.4559H253.501V35.5279C253.501 38.4293 254.717 39.8799 257.149 39.8799C258.344 39.8799 259.24 39.5386 259.837 38.8559C260.477 38.1306 260.797 36.9786 260.797 35.3999C260.797 33.5226 260.371 31.8799 259.517 30.4719C258.664 29.0213 257.085 27.2933 254.781 25.2879C251.88 22.7279 249.853 20.4239 248.701 18.3759C247.549 16.2853 246.973 13.9386 246.973 11.3359C246.973 7.79461 247.869 4.86402 249.661 2.94402C251.453 0.981349 254.056 1.52588e-05 257.469 1.52588e-05C260.84 1.52588e-05 263.379 0.981349 265.085 2.94402C266.835 4.86402 267.709 7.83728 267.709 11.4639V13.3199H261.053V11.0159C261.053 9.47995 260.755 8.37061 260.157 7.68794C259.56 6.96261 258.685 6.59995 257.533 6.59995C255.187 6.59995 254.013 8.02928 254.013 10.8879C254.013 12.5093 254.44 14.0239 255.293 15.4319C256.189 16.8399 257.789 18.5466 260.093 20.5519C263.037 23.1119 265.064 25.4373 266.173 27.5279C267.283 29.6186 267.837 32.0719 267.837 34.8879C267.837 38.5573 266.92 41.3733 265.085 43.3359C263.293 45.2986 260.669 46.2799 257.213 46.2799Z" fill="#DB0000"/>
</svg>
